<mxfile host="app.diagrams.net" modified="2023-04-10T14:49:47.330Z" agent="Mozilla/5.0 (Macintosh; Intel Mac OS X 10_15_7) AppleWebKit/605.1.15 (KHTML, like Gecko) Version/15.6.1 Safari/605.1.15" etag="GTHEyettaO2KEqjlqnII" version="21.1.5" type="github">
  <diagram name="Page-1" id="WYTNOoOYvNMYCakxZosF">
    <mxGraphModel dx="633" dy="2065" grid="1" gridSize="10" guides="1" tooltips="1" connect="1" arrows="1" fold="1" page="1" pageScale="1" pageWidth="827" pageHeight="1169" math="0" shadow="0">
      <root>
        <mxCell id="0" />
        <mxCell id="1" parent="0" />
        <mxCell id="9jfMbnJ6UVAm21j0P12a-1" value="User" style="whiteSpace=wrap;html=1;align=center;" vertex="1" parent="1">
          <mxGeometry x="120" y="120" width="100" height="40" as="geometry" />
        </mxCell>
        <mxCell id="9jfMbnJ6UVAm21j0P12a-5" value="ID" style="ellipse;whiteSpace=wrap;html=1;align=center;fontStyle=4;" vertex="1" parent="1">
          <mxGeometry y="120" width="100" height="40" as="geometry" />
        </mxCell>
        <mxCell id="9jfMbnJ6UVAm21j0P12a-6" value="Name" style="ellipse;whiteSpace=wrap;html=1;align=center;" vertex="1" parent="1">
          <mxGeometry y="170" width="100" height="40" as="geometry" />
        </mxCell>
        <mxCell id="9jfMbnJ6UVAm21j0P12a-7" value="City" style="ellipse;whiteSpace=wrap;html=1;align=center;" vertex="1" parent="1">
          <mxGeometry x="230" y="220" width="100" height="40" as="geometry" />
        </mxCell>
        <mxCell id="9jfMbnJ6UVAm21j0P12a-8" value="Phone" style="ellipse;whiteSpace=wrap;html=1;align=center;" vertex="1" parent="1">
          <mxGeometry y="70" width="100" height="40" as="geometry" />
        </mxCell>
        <mxCell id="9jfMbnJ6UVAm21j0P12a-9" value="Email" style="ellipse;whiteSpace=wrap;html=1;align=center;" vertex="1" parent="1">
          <mxGeometry y="20" width="100" height="40" as="geometry" />
        </mxCell>
        <mxCell id="9jfMbnJ6UVAm21j0P12a-10" value="Address" style="ellipse;whiteSpace=wrap;html=1;align=center;" vertex="1" parent="1">
          <mxGeometry x="120" y="20" width="100" height="40" as="geometry" />
        </mxCell>
        <mxCell id="9jfMbnJ6UVAm21j0P12a-11" value="Country" style="ellipse;whiteSpace=wrap;html=1;align=center;" vertex="1" parent="1">
          <mxGeometry x="240" y="20" width="100" height="40" as="geometry" />
        </mxCell>
        <mxCell id="9jfMbnJ6UVAm21j0P12a-12" value="NIF" style="ellipse;whiteSpace=wrap;html=1;align=center;" vertex="1" parent="1">
          <mxGeometry y="220" width="100" height="40" as="geometry" />
        </mxCell>
        <mxCell id="9jfMbnJ6UVAm21j0P12a-14" value="" style="endArrow=none;html=1;rounded=0;exitX=0.5;exitY=1;exitDx=0;exitDy=0;entryX=1;entryY=0.5;entryDx=0;entryDy=0;" edge="1" parent="1" source="9jfMbnJ6UVAm21j0P12a-1" target="9jfMbnJ6UVAm21j0P12a-25">
          <mxGeometry relative="1" as="geometry">
            <mxPoint x="260" y="350" as="sourcePoint" />
            <mxPoint x="170" y="340" as="targetPoint" />
          </mxGeometry>
        </mxCell>
        <mxCell id="9jfMbnJ6UVAm21j0P12a-15" value="" style="endArrow=none;html=1;rounded=0;exitX=0.25;exitY=1;exitDx=0;exitDy=0;entryX=1;entryY=0.5;entryDx=0;entryDy=0;" edge="1" parent="1" source="9jfMbnJ6UVAm21j0P12a-1" target="9jfMbnJ6UVAm21j0P12a-12">
          <mxGeometry relative="1" as="geometry">
            <mxPoint x="260" y="350" as="sourcePoint" />
            <mxPoint x="420" y="350" as="targetPoint" />
          </mxGeometry>
        </mxCell>
        <mxCell id="9jfMbnJ6UVAm21j0P12a-16" value="" style="endArrow=none;html=1;rounded=0;exitX=0.75;exitY=1;exitDx=0;exitDy=0;entryX=0;entryY=0;entryDx=0;entryDy=0;" edge="1" parent="1" source="9jfMbnJ6UVAm21j0P12a-1" target="9jfMbnJ6UVAm21j0P12a-7">
          <mxGeometry relative="1" as="geometry">
            <mxPoint x="155" y="170" as="sourcePoint" />
            <mxPoint x="110" y="260" as="targetPoint" />
          </mxGeometry>
        </mxCell>
        <mxCell id="9jfMbnJ6UVAm21j0P12a-17" value="" style="endArrow=none;html=1;rounded=0;exitX=0;exitY=1;exitDx=0;exitDy=0;entryX=1;entryY=0.5;entryDx=0;entryDy=0;" edge="1" parent="1" source="9jfMbnJ6UVAm21j0P12a-1" target="9jfMbnJ6UVAm21j0P12a-6">
          <mxGeometry relative="1" as="geometry">
            <mxPoint x="165" y="180" as="sourcePoint" />
            <mxPoint x="120" y="270" as="targetPoint" />
          </mxGeometry>
        </mxCell>
        <mxCell id="9jfMbnJ6UVAm21j0P12a-18" value="" style="endArrow=none;html=1;rounded=0;entryX=1;entryY=0.5;entryDx=0;entryDy=0;" edge="1" parent="1" target="9jfMbnJ6UVAm21j0P12a-8">
          <mxGeometry relative="1" as="geometry">
            <mxPoint x="120" y="120" as="sourcePoint" />
            <mxPoint x="130" y="280" as="targetPoint" />
          </mxGeometry>
        </mxCell>
        <mxCell id="9jfMbnJ6UVAm21j0P12a-19" value="" style="endArrow=none;html=1;rounded=0;exitX=0;exitY=0.5;exitDx=0;exitDy=0;entryX=1;entryY=0.5;entryDx=0;entryDy=0;" edge="1" parent="1" source="9jfMbnJ6UVAm21j0P12a-1" target="9jfMbnJ6UVAm21j0P12a-5">
          <mxGeometry relative="1" as="geometry">
            <mxPoint x="185" y="200" as="sourcePoint" />
            <mxPoint x="140" y="290" as="targetPoint" />
          </mxGeometry>
        </mxCell>
        <mxCell id="9jfMbnJ6UVAm21j0P12a-20" value="" style="endArrow=none;html=1;rounded=0;exitX=1;exitY=0.5;exitDx=0;exitDy=0;entryX=0.25;entryY=0;entryDx=0;entryDy=0;" edge="1" parent="1" source="9jfMbnJ6UVAm21j0P12a-9" target="9jfMbnJ6UVAm21j0P12a-1">
          <mxGeometry relative="1" as="geometry">
            <mxPoint x="195" y="210" as="sourcePoint" />
            <mxPoint x="150" y="300" as="targetPoint" />
          </mxGeometry>
        </mxCell>
        <mxCell id="9jfMbnJ6UVAm21j0P12a-21" value="" style="endArrow=none;html=1;rounded=0;exitX=0.5;exitY=1;exitDx=0;exitDy=0;" edge="1" parent="1" source="9jfMbnJ6UVAm21j0P12a-10">
          <mxGeometry relative="1" as="geometry">
            <mxPoint x="205" y="220" as="sourcePoint" />
            <mxPoint x="170" y="120" as="targetPoint" />
          </mxGeometry>
        </mxCell>
        <mxCell id="9jfMbnJ6UVAm21j0P12a-22" value="" style="endArrow=none;html=1;rounded=0;exitX=0;exitY=1;exitDx=0;exitDy=0;entryX=0.75;entryY=0;entryDx=0;entryDy=0;" edge="1" parent="1" source="9jfMbnJ6UVAm21j0P12a-11" target="9jfMbnJ6UVAm21j0P12a-1">
          <mxGeometry relative="1" as="geometry">
            <mxPoint x="215" y="230" as="sourcePoint" />
            <mxPoint x="170" y="320" as="targetPoint" />
          </mxGeometry>
        </mxCell>
        <mxCell id="9jfMbnJ6UVAm21j0P12a-25" value="ISA" style="triangle;whiteSpace=wrap;html=1;direction=north;" vertex="1" parent="1">
          <mxGeometry x="130" y="260" width="80" height="60" as="geometry" />
        </mxCell>
        <mxCell id="9jfMbnJ6UVAm21j0P12a-26" value="Client" style="whiteSpace=wrap;html=1;align=center;" vertex="1" parent="1">
          <mxGeometry x="120" y="400" width="100" height="40" as="geometry" />
        </mxCell>
        <mxCell id="9jfMbnJ6UVAm21j0P12a-27" value="Admin" style="whiteSpace=wrap;html=1;align=center;" vertex="1" parent="1">
          <mxGeometry x="10" y="340" width="100" height="40" as="geometry" />
        </mxCell>
        <mxCell id="9jfMbnJ6UVAm21j0P12a-28" value="Employee" style="whiteSpace=wrap;html=1;align=center;" vertex="1" parent="1">
          <mxGeometry x="240" y="340" width="100" height="40" as="geometry" />
        </mxCell>
        <mxCell id="9jfMbnJ6UVAm21j0P12a-29" value="" style="endArrow=none;html=1;rounded=0;entryX=0;entryY=0.5;entryDx=0;entryDy=0;exitX=0.5;exitY=0;exitDx=0;exitDy=0;" edge="1" parent="1" source="9jfMbnJ6UVAm21j0P12a-26" target="9jfMbnJ6UVAm21j0P12a-25">
          <mxGeometry width="50" height="50" relative="1" as="geometry">
            <mxPoint x="160" y="320" as="sourcePoint" />
            <mxPoint x="210" y="270" as="targetPoint" />
          </mxGeometry>
        </mxCell>
        <mxCell id="9jfMbnJ6UVAm21j0P12a-30" value="" style="endArrow=none;html=1;rounded=0;entryX=0;entryY=0.25;entryDx=0;entryDy=0;exitX=1;exitY=0.5;exitDx=0;exitDy=0;" edge="1" parent="1" source="9jfMbnJ6UVAm21j0P12a-27" target="9jfMbnJ6UVAm21j0P12a-25">
          <mxGeometry width="50" height="50" relative="1" as="geometry">
            <mxPoint x="180" y="410" as="sourcePoint" />
            <mxPoint x="180" y="330" as="targetPoint" />
          </mxGeometry>
        </mxCell>
        <mxCell id="9jfMbnJ6UVAm21j0P12a-31" value="" style="endArrow=none;html=1;rounded=0;entryX=0;entryY=0.75;entryDx=0;entryDy=0;exitX=0;exitY=0.5;exitDx=0;exitDy=0;" edge="1" parent="1" source="9jfMbnJ6UVAm21j0P12a-28" target="9jfMbnJ6UVAm21j0P12a-25">
          <mxGeometry width="50" height="50" relative="1" as="geometry">
            <mxPoint x="190" y="420" as="sourcePoint" />
            <mxPoint x="190" y="340" as="targetPoint" />
            <Array as="points">
              <mxPoint x="240" y="360" />
            </Array>
          </mxGeometry>
        </mxCell>
        <mxCell id="9jfMbnJ6UVAm21j0P12a-32" value="Role" style="ellipse;whiteSpace=wrap;html=1;align=center;" vertex="1" parent="1">
          <mxGeometry x="250" y="70" width="100" height="40" as="geometry" />
        </mxCell>
        <mxCell id="9jfMbnJ6UVAm21j0P12a-34" value="" style="endArrow=none;html=1;rounded=0;exitX=0;exitY=0.5;exitDx=0;exitDy=0;" edge="1" parent="1" source="9jfMbnJ6UVAm21j0P12a-32">
          <mxGeometry relative="1" as="geometry">
            <mxPoint x="255" y="64" as="sourcePoint" />
            <mxPoint x="220" y="120" as="targetPoint" />
          </mxGeometry>
        </mxCell>
        <mxCell id="9jfMbnJ6UVAm21j0P12a-35" value="" style="shape=link;html=1;rounded=0;entryX=0;entryY=0.5;entryDx=0;entryDy=0;" edge="1" parent="1" target="9jfMbnJ6UVAm21j0P12a-38">
          <mxGeometry relative="1" as="geometry">
            <mxPoint x="220" y="140" as="sourcePoint" />
            <mxPoint x="370" y="140" as="targetPoint" />
          </mxGeometry>
        </mxCell>
        <mxCell id="9jfMbnJ6UVAm21j0P12a-36" value="1" style="resizable=0;html=1;whiteSpace=wrap;align=right;verticalAlign=bottom;" connectable="0" vertex="1" parent="9jfMbnJ6UVAm21j0P12a-35">
          <mxGeometry x="1" relative="1" as="geometry" />
        </mxCell>
        <mxCell id="9jfMbnJ6UVAm21j0P12a-37" value="N" style="edgeLabel;html=1;align=center;verticalAlign=middle;resizable=0;points=[];" vertex="1" connectable="0" parent="9jfMbnJ6UVAm21j0P12a-35">
          <mxGeometry x="-0.8843" y="6" relative="1" as="geometry">
            <mxPoint y="-4" as="offset" />
          </mxGeometry>
        </mxCell>
        <mxCell id="9jfMbnJ6UVAm21j0P12a-38" value="Orders" style="shape=rhombus;perimeter=rhombusPerimeter;whiteSpace=wrap;html=1;align=center;" vertex="1" parent="1">
          <mxGeometry x="470" y="115" width="90" height="50" as="geometry" />
        </mxCell>
        <mxCell id="9jfMbnJ6UVAm21j0P12a-39" value="Price" style="ellipse;whiteSpace=wrap;html=1;align=center;" vertex="1" parent="1">
          <mxGeometry x="370" y="70" width="100" height="40" as="geometry" />
        </mxCell>
        <mxCell id="9jfMbnJ6UVAm21j0P12a-40" value="Quantity" style="ellipse;whiteSpace=wrap;html=1;align=center;" vertex="1" parent="1">
          <mxGeometry x="560" y="70" width="100" height="40" as="geometry" />
        </mxCell>
        <mxCell id="9jfMbnJ6UVAm21j0P12a-41" value="OrderName" style="ellipse;whiteSpace=wrap;html=1;align=center;" vertex="1" parent="1">
          <mxGeometry x="560" y="170" width="100" height="40" as="geometry" />
        </mxCell>
        <mxCell id="9jfMbnJ6UVAm21j0P12a-42" value="&lt;u&gt;OrderID&lt;/u&gt;" style="ellipse;whiteSpace=wrap;html=1;align=center;" vertex="1" parent="1">
          <mxGeometry x="465" y="240" width="100" height="40" as="geometry" />
        </mxCell>
        <mxCell id="9jfMbnJ6UVAm21j0P12a-43" value="Date" style="ellipse;whiteSpace=wrap;html=1;align=center;" vertex="1" parent="1">
          <mxGeometry x="370" y="170" width="100" height="40" as="geometry" />
        </mxCell>
        <mxCell id="9jfMbnJ6UVAm21j0P12a-44" value="" style="html=1;rounded=0;exitX=1;exitY=0.5;exitDx=0;exitDy=0;endArrow=none;endFill=0;entryX=0;entryY=0.5;entryDx=0;entryDy=0;" edge="1" parent="1" source="9jfMbnJ6UVAm21j0P12a-38" target="9jfMbnJ6UVAm21j0P12a-65">
          <mxGeometry relative="1" as="geometry">
            <mxPoint x="610" y="140" as="sourcePoint" />
            <mxPoint x="780" y="140" as="targetPoint" />
          </mxGeometry>
        </mxCell>
        <mxCell id="9jfMbnJ6UVAm21j0P12a-45" value="N" style="resizable=0;html=1;whiteSpace=wrap;align=right;verticalAlign=bottom;" connectable="0" vertex="1" parent="9jfMbnJ6UVAm21j0P12a-44">
          <mxGeometry x="1" relative="1" as="geometry" />
        </mxCell>
        <mxCell id="9jfMbnJ6UVAm21j0P12a-47" value="" style="endArrow=none;html=1;rounded=0;exitX=0.5;exitY=1;exitDx=0;exitDy=0;entryX=0.5;entryY=0;entryDx=0;entryDy=0;" edge="1" parent="1" source="9jfMbnJ6UVAm21j0P12a-38" target="9jfMbnJ6UVAm21j0P12a-42">
          <mxGeometry relative="1" as="geometry">
            <mxPoint x="500" y="250" as="sourcePoint" />
            <mxPoint x="660" y="250" as="targetPoint" />
          </mxGeometry>
        </mxCell>
        <mxCell id="9jfMbnJ6UVAm21j0P12a-48" value="" style="endArrow=none;html=1;rounded=0;exitX=1;exitY=1;exitDx=0;exitDy=0;entryX=0;entryY=0;entryDx=0;entryDy=0;" edge="1" parent="1" source="9jfMbnJ6UVAm21j0P12a-38" target="9jfMbnJ6UVAm21j0P12a-41">
          <mxGeometry relative="1" as="geometry">
            <mxPoint x="525" y="175" as="sourcePoint" />
            <mxPoint x="525" y="250" as="targetPoint" />
          </mxGeometry>
        </mxCell>
        <mxCell id="9jfMbnJ6UVAm21j0P12a-49" value="" style="endArrow=none;html=1;rounded=0;exitX=0;exitY=1;exitDx=0;exitDy=0;entryX=1;entryY=0;entryDx=0;entryDy=0;" edge="1" parent="1" source="9jfMbnJ6UVAm21j0P12a-38" target="9jfMbnJ6UVAm21j0P12a-43">
          <mxGeometry relative="1" as="geometry">
            <mxPoint x="535" y="185" as="sourcePoint" />
            <mxPoint x="535" y="260" as="targetPoint" />
          </mxGeometry>
        </mxCell>
        <mxCell id="9jfMbnJ6UVAm21j0P12a-50" value="" style="endArrow=none;html=1;rounded=0;exitX=0;exitY=0;exitDx=0;exitDy=0;entryX=1;entryY=1;entryDx=0;entryDy=0;" edge="1" parent="1" source="9jfMbnJ6UVAm21j0P12a-38" target="9jfMbnJ6UVAm21j0P12a-39">
          <mxGeometry relative="1" as="geometry">
            <mxPoint x="545" y="195" as="sourcePoint" />
            <mxPoint x="545" y="270" as="targetPoint" />
          </mxGeometry>
        </mxCell>
        <mxCell id="9jfMbnJ6UVAm21j0P12a-51" value="" style="endArrow=none;html=1;rounded=0;exitX=1;exitY=0;exitDx=0;exitDy=0;entryX=0;entryY=1;entryDx=0;entryDy=0;" edge="1" parent="1" source="9jfMbnJ6UVAm21j0P12a-38" target="9jfMbnJ6UVAm21j0P12a-40">
          <mxGeometry relative="1" as="geometry">
            <mxPoint x="555" y="205" as="sourcePoint" />
            <mxPoint x="555" y="280" as="targetPoint" />
          </mxGeometry>
        </mxCell>
        <mxCell id="9jfMbnJ6UVAm21j0P12a-52" value="" style="endArrow=none;html=1;rounded=0;exitX=0.5;exitY=1;exitDx=0;exitDy=0;entryX=0.5;entryY=0;entryDx=0;entryDy=0;" edge="1" parent="1" source="9jfMbnJ6UVAm21j0P12a-53" target="9jfMbnJ6UVAm21j0P12a-38">
          <mxGeometry relative="1" as="geometry">
            <mxPoint x="514.5799999999999" y="15" as="sourcePoint" />
            <mxPoint x="515" y="100" as="targetPoint" />
          </mxGeometry>
        </mxCell>
        <mxCell id="9jfMbnJ6UVAm21j0P12a-53" value="Inventory/Stock" style="whiteSpace=wrap;html=1;align=center;" vertex="1" parent="1">
          <mxGeometry x="465" y="-30" width="100" height="40" as="geometry" />
        </mxCell>
        <mxCell id="9jfMbnJ6UVAm21j0P12a-55" value="Description" style="ellipse;whiteSpace=wrap;html=1;align=center;" vertex="1" parent="1">
          <mxGeometry x="350" y="-30" width="100" height="40" as="geometry" />
        </mxCell>
        <mxCell id="9jfMbnJ6UVAm21j0P12a-56" value="Cost" style="ellipse;whiteSpace=wrap;html=1;align=center;" vertex="1" parent="1">
          <mxGeometry x="365" y="-90" width="100" height="40" as="geometry" />
        </mxCell>
        <mxCell id="9jfMbnJ6UVAm21j0P12a-57" value="&lt;u&gt;ID&lt;/u&gt;" style="ellipse;whiteSpace=wrap;html=1;align=center;" vertex="1" parent="1">
          <mxGeometry x="465" y="-120" width="100" height="40" as="geometry" />
        </mxCell>
        <mxCell id="9jfMbnJ6UVAm21j0P12a-58" value="Quantity" style="ellipse;whiteSpace=wrap;html=1;align=center;" vertex="1" parent="1">
          <mxGeometry x="565" y="-90" width="100" height="40" as="geometry" />
        </mxCell>
        <mxCell id="9jfMbnJ6UVAm21j0P12a-59" value="Name" style="ellipse;whiteSpace=wrap;html=1;align=center;" vertex="1" parent="1">
          <mxGeometry x="580" y="-30" width="100" height="40" as="geometry" />
        </mxCell>
        <mxCell id="9jfMbnJ6UVAm21j0P12a-60" value="" style="endArrow=none;html=1;rounded=0;exitX=1;exitY=0.5;exitDx=0;exitDy=0;entryX=0;entryY=0.5;entryDx=0;entryDy=0;" edge="1" parent="1" source="9jfMbnJ6UVAm21j0P12a-55" target="9jfMbnJ6UVAm21j0P12a-53">
          <mxGeometry relative="1" as="geometry">
            <mxPoint x="480" y="-50" as="sourcePoint" />
            <mxPoint x="640" y="-50" as="targetPoint" />
          </mxGeometry>
        </mxCell>
        <mxCell id="9jfMbnJ6UVAm21j0P12a-61" value="" style="endArrow=none;html=1;rounded=0;exitX=0;exitY=0.5;exitDx=0;exitDy=0;entryX=1;entryY=0.5;entryDx=0;entryDy=0;" edge="1" parent="1" source="9jfMbnJ6UVAm21j0P12a-59" target="9jfMbnJ6UVAm21j0P12a-53">
          <mxGeometry relative="1" as="geometry">
            <mxPoint x="460" as="sourcePoint" />
            <mxPoint x="475" as="targetPoint" />
          </mxGeometry>
        </mxCell>
        <mxCell id="9jfMbnJ6UVAm21j0P12a-62" value="" style="endArrow=none;html=1;rounded=0;" edge="1" parent="1" target="9jfMbnJ6UVAm21j0P12a-53">
          <mxGeometry relative="1" as="geometry">
            <mxPoint x="460" y="-60" as="sourcePoint" />
            <mxPoint x="485" y="10" as="targetPoint" />
          </mxGeometry>
        </mxCell>
        <mxCell id="9jfMbnJ6UVAm21j0P12a-63" value="" style="endArrow=none;html=1;rounded=0;exitX=0;exitY=1;exitDx=0;exitDy=0;entryX=0.75;entryY=0;entryDx=0;entryDy=0;" edge="1" parent="1" source="9jfMbnJ6UVAm21j0P12a-58" target="9jfMbnJ6UVAm21j0P12a-53">
          <mxGeometry relative="1" as="geometry">
            <mxPoint x="471" y="-48" as="sourcePoint" />
            <mxPoint x="503" y="-20" as="targetPoint" />
          </mxGeometry>
        </mxCell>
        <mxCell id="9jfMbnJ6UVAm21j0P12a-64" value="" style="endArrow=none;html=1;rounded=0;exitX=0.5;exitY=1;exitDx=0;exitDy=0;entryX=0.5;entryY=0;entryDx=0;entryDy=0;" edge="1" parent="1" source="9jfMbnJ6UVAm21j0P12a-57" target="9jfMbnJ6UVAm21j0P12a-53">
          <mxGeometry relative="1" as="geometry">
            <mxPoint x="481" y="-38" as="sourcePoint" />
            <mxPoint x="520" y="-50" as="targetPoint" />
          </mxGeometry>
        </mxCell>
        <mxCell id="9jfMbnJ6UVAm21j0P12a-65" value="Product" style="whiteSpace=wrap;html=1;align=center;" vertex="1" parent="1">
          <mxGeometry x="810" y="120" width="100" height="40" as="geometry" />
        </mxCell>
        <mxCell id="9jfMbnJ6UVAm21j0P12a-66" value="Supplier" style="whiteSpace=wrap;html=1;align=center;" vertex="1" parent="1">
          <mxGeometry x="810" y="-30" width="100" height="40" as="geometry" />
        </mxCell>
        <mxCell id="9jfMbnJ6UVAm21j0P12a-67" value="" style="endArrow=none;html=1;rounded=0;exitX=0.5;exitY=1;exitDx=0;exitDy=0;entryX=0.5;entryY=0;entryDx=0;entryDy=0;" edge="1" parent="1" source="9jfMbnJ6UVAm21j0P12a-66" target="9jfMbnJ6UVAm21j0P12a-65">
          <mxGeometry relative="1" as="geometry">
            <mxPoint x="525" y="20" as="sourcePoint" />
            <mxPoint x="525" y="125" as="targetPoint" />
          </mxGeometry>
        </mxCell>
        <mxCell id="9jfMbnJ6UVAm21j0P12a-68" value="N" style="edgeLabel;html=1;align=center;verticalAlign=middle;resizable=0;points=[];" vertex="1" connectable="0" parent="9jfMbnJ6UVAm21j0P12a-67">
          <mxGeometry x="0.7304" relative="1" as="geometry">
            <mxPoint x="10" as="offset" />
          </mxGeometry>
        </mxCell>
        <mxCell id="9jfMbnJ6UVAm21j0P12a-69" value="1" style="edgeLabel;html=1;align=center;verticalAlign=middle;resizable=0;points=[];" vertex="1" connectable="0" parent="9jfMbnJ6UVAm21j0P12a-67">
          <mxGeometry x="-0.8151" y="1" relative="1" as="geometry">
            <mxPoint x="9" as="offset" />
          </mxGeometry>
        </mxCell>
        <mxCell id="9jfMbnJ6UVAm21j0P12a-70" value="&lt;u&gt;ID&lt;/u&gt;" style="ellipse;whiteSpace=wrap;html=1;align=center;" vertex="1" parent="1">
          <mxGeometry x="700" y="70" width="100" height="40" as="geometry" />
        </mxCell>
        <mxCell id="9jfMbnJ6UVAm21j0P12a-71" value="Price" style="ellipse;whiteSpace=wrap;html=1;align=center;" vertex="1" parent="1">
          <mxGeometry x="700" y="170" width="100" height="40" as="geometry" />
        </mxCell>
        <mxCell id="9jfMbnJ6UVAm21j0P12a-72" value="" style="endArrow=none;html=1;rounded=0;exitX=0.25;exitY=0;exitDx=0;exitDy=0;entryX=1;entryY=1;entryDx=0;entryDy=0;" edge="1" parent="1" source="9jfMbnJ6UVAm21j0P12a-65" target="9jfMbnJ6UVAm21j0P12a-70">
          <mxGeometry relative="1" as="geometry">
            <mxPoint x="750" y="110" as="sourcePoint" />
            <mxPoint x="950" y="100" as="targetPoint" />
          </mxGeometry>
        </mxCell>
        <mxCell id="9jfMbnJ6UVAm21j0P12a-73" value="" style="endArrow=none;html=1;rounded=0;exitX=0.25;exitY=1;exitDx=0;exitDy=0;entryX=1;entryY=0;entryDx=0;entryDy=0;" edge="1" parent="1" source="9jfMbnJ6UVAm21j0P12a-65" target="9jfMbnJ6UVAm21j0P12a-71">
          <mxGeometry relative="1" as="geometry">
            <mxPoint x="920" y="130" as="sourcePoint" />
            <mxPoint x="955" y="114" as="targetPoint" />
          </mxGeometry>
        </mxCell>
        <mxCell id="9jfMbnJ6UVAm21j0P12a-74" value="ISA" style="triangle;whiteSpace=wrap;html=1;direction=north;" vertex="1" parent="1">
          <mxGeometry x="820" y="260" width="80" height="60" as="geometry" />
        </mxCell>
        <mxCell id="9jfMbnJ6UVAm21j0P12a-75" value="Scooter / Bike" style="whiteSpace=wrap;html=1;align=center;" vertex="1" parent="1">
          <mxGeometry x="700" y="340" width="100" height="40" as="geometry" />
        </mxCell>
        <mxCell id="9jfMbnJ6UVAm21j0P12a-76" value="Accessories" style="whiteSpace=wrap;html=1;align=center;" vertex="1" parent="1">
          <mxGeometry x="930" y="340" width="100" height="40" as="geometry" />
        </mxCell>
        <mxCell id="9jfMbnJ6UVAm21j0P12a-77" value="" style="endArrow=none;html=1;rounded=0;entryX=0;entryY=0.25;entryDx=0;entryDy=0;exitX=1;exitY=0.5;exitDx=0;exitDy=0;" edge="1" parent="1" source="9jfMbnJ6UVAm21j0P12a-75" target="9jfMbnJ6UVAm21j0P12a-74">
          <mxGeometry width="50" height="50" relative="1" as="geometry">
            <mxPoint x="870" y="410" as="sourcePoint" />
            <mxPoint x="870" y="330" as="targetPoint" />
          </mxGeometry>
        </mxCell>
        <mxCell id="9jfMbnJ6UVAm21j0P12a-78" value="" style="endArrow=none;html=1;rounded=0;entryX=0;entryY=0.75;entryDx=0;entryDy=0;exitX=0;exitY=0.5;exitDx=0;exitDy=0;" edge="1" parent="1" source="9jfMbnJ6UVAm21j0P12a-76" target="9jfMbnJ6UVAm21j0P12a-74">
          <mxGeometry width="50" height="50" relative="1" as="geometry">
            <mxPoint x="880" y="420" as="sourcePoint" />
            <mxPoint x="880" y="340" as="targetPoint" />
            <Array as="points">
              <mxPoint x="930" y="360" />
            </Array>
          </mxGeometry>
        </mxCell>
        <mxCell id="9jfMbnJ6UVAm21j0P12a-79" value="" style="endArrow=none;html=1;rounded=0;exitX=0.5;exitY=1;exitDx=0;exitDy=0;entryX=1;entryY=0.5;entryDx=0;entryDy=0;" edge="1" parent="1" source="9jfMbnJ6UVAm21j0P12a-65" target="9jfMbnJ6UVAm21j0P12a-74">
          <mxGeometry relative="1" as="geometry">
            <mxPoint x="900" y="185" as="sourcePoint" />
            <mxPoint x="900" y="295" as="targetPoint" />
          </mxGeometry>
        </mxCell>
        <mxCell id="9jfMbnJ6UVAm21j0P12a-82" value="disjoint" style="text;html=1;align=center;verticalAlign=middle;resizable=0;points=[];autosize=1;strokeColor=none;fillColor=none;" vertex="1" parent="1">
          <mxGeometry x="180" y="270" width="60" height="30" as="geometry" />
        </mxCell>
        <mxCell id="9jfMbnJ6UVAm21j0P12a-83" value="disjoint" style="text;html=1;align=center;verticalAlign=middle;resizable=0;points=[];autosize=1;strokeColor=none;fillColor=none;" vertex="1" parent="1">
          <mxGeometry x="880" y="270" width="60" height="30" as="geometry" />
        </mxCell>
        <mxCell id="9jfMbnJ6UVAm21j0P12a-84" value="Geographic Location" style="shape=ext;margin=3;double=1;whiteSpace=wrap;html=1;align=center;" vertex="1" parent="1">
          <mxGeometry x="700" y="460" width="100" height="40" as="geometry" />
        </mxCell>
        <mxCell id="9jfMbnJ6UVAm21j0P12a-86" value="&lt;u&gt;ID&lt;/u&gt;" style="ellipse;whiteSpace=wrap;html=1;align=center;" vertex="1" parent="1">
          <mxGeometry x="580" y="460" width="100" height="40" as="geometry" />
        </mxCell>
        <mxCell id="9jfMbnJ6UVAm21j0P12a-87" value="GPS" style="ellipse;whiteSpace=wrap;html=1;align=center;" vertex="1" parent="1">
          <mxGeometry x="827" y="460" width="100" height="40" as="geometry" />
        </mxCell>
        <mxCell id="9jfMbnJ6UVAm21j0P12a-89" value="" style="endArrow=none;html=1;rounded=0;exitX=1;exitY=0.5;exitDx=0;exitDy=0;" edge="1" parent="1" source="9jfMbnJ6UVAm21j0P12a-86">
          <mxGeometry relative="1" as="geometry">
            <mxPoint x="720" y="490" as="sourcePoint" />
            <mxPoint x="700" y="480" as="targetPoint" />
          </mxGeometry>
        </mxCell>
        <mxCell id="9jfMbnJ6UVAm21j0P12a-91" value="" style="endArrow=none;html=1;rounded=0;exitX=0;exitY=0.5;exitDx=0;exitDy=0;entryX=1;entryY=0.5;entryDx=0;entryDy=0;" edge="1" parent="1" source="9jfMbnJ6UVAm21j0P12a-87" target="9jfMbnJ6UVAm21j0P12a-84">
          <mxGeometry relative="1" as="geometry">
            <mxPoint x="690" y="490" as="sourcePoint" />
            <mxPoint x="710" y="490" as="targetPoint" />
          </mxGeometry>
        </mxCell>
        <mxCell id="9jfMbnJ6UVAm21j0P12a-92" value="" style="endArrow=none;html=1;rounded=0;exitX=0.5;exitY=1;exitDx=0;exitDy=0;entryX=0.5;entryY=0;entryDx=0;entryDy=0;" edge="1" parent="1" source="9jfMbnJ6UVAm21j0P12a-75" target="9jfMbnJ6UVAm21j0P12a-84">
          <mxGeometry relative="1" as="geometry">
            <mxPoint x="700" y="500" as="sourcePoint" />
            <mxPoint x="720" y="500" as="targetPoint" />
          </mxGeometry>
        </mxCell>
        <mxCell id="9jfMbnJ6UVAm21j0P12a-93" value="" style="endArrow=none;html=1;rounded=0;exitX=1;exitY=0.75;exitDx=0;exitDy=0;entryX=0;entryY=0;entryDx=0;entryDy=0;" edge="1" parent="1" source="9jfMbnJ6UVAm21j0P12a-65" target="9jfMbnJ6UVAm21j0P12a-96">
          <mxGeometry relative="1" as="geometry">
            <mxPoint x="970" y="140" as="sourcePoint" />
            <mxPoint x="1130" y="140" as="targetPoint" />
          </mxGeometry>
        </mxCell>
        <mxCell id="9jfMbnJ6UVAm21j0P12a-95" value="has" style="shape=rhombus;perimeter=rhombusPerimeter;whiteSpace=wrap;html=1;align=center;" vertex="1" parent="1">
          <mxGeometry x="1010" y="40" width="90" height="50" as="geometry" />
        </mxCell>
        <mxCell id="9jfMbnJ6UVAm21j0P12a-96" value="has" style="shape=rhombus;perimeter=rhombusPerimeter;whiteSpace=wrap;html=1;align=center;" vertex="1" parent="1">
          <mxGeometry x="1010" y="190" width="90" height="50" as="geometry" />
        </mxCell>
        <mxCell id="9jfMbnJ6UVAm21j0P12a-97" value="" style="endArrow=none;html=1;rounded=0;exitX=1;exitY=0.25;exitDx=0;exitDy=0;entryX=0;entryY=1;entryDx=0;entryDy=0;" edge="1" parent="1" source="9jfMbnJ6UVAm21j0P12a-65" target="9jfMbnJ6UVAm21j0P12a-95">
          <mxGeometry relative="1" as="geometry">
            <mxPoint x="920" y="160" as="sourcePoint" />
            <mxPoint x="1093" y="212" as="targetPoint" />
          </mxGeometry>
        </mxCell>
        <mxCell id="9jfMbnJ6UVAm21j0P12a-98" value="Insurance" style="whiteSpace=wrap;html=1;align=center;" vertex="1" parent="1">
          <mxGeometry x="1150" width="100" height="40" as="geometry" />
        </mxCell>
        <mxCell id="9jfMbnJ6UVAm21j0P12a-99" value="Payment" style="whiteSpace=wrap;html=1;align=center;" vertex="1" parent="1">
          <mxGeometry x="1150" y="240" width="100" height="40" as="geometry" />
        </mxCell>
        <mxCell id="9jfMbnJ6UVAm21j0P12a-100" value="" style="endArrow=none;html=1;rounded=0;exitX=1;exitY=0;exitDx=0;exitDy=0;entryX=0;entryY=0.5;entryDx=0;entryDy=0;" edge="1" parent="1" source="9jfMbnJ6UVAm21j0P12a-95" target="9jfMbnJ6UVAm21j0P12a-98">
          <mxGeometry relative="1" as="geometry">
            <mxPoint x="920" y="140" as="sourcePoint" />
            <mxPoint x="1043" y="97" as="targetPoint" />
          </mxGeometry>
        </mxCell>
        <mxCell id="9jfMbnJ6UVAm21j0P12a-102" value="" style="endArrow=none;html=1;rounded=0;exitX=1;exitY=1;exitDx=0;exitDy=0;entryX=0;entryY=0.5;entryDx=0;entryDy=0;" edge="1" parent="1" source="9jfMbnJ6UVAm21j0P12a-96" target="9jfMbnJ6UVAm21j0P12a-99">
          <mxGeometry relative="1" as="geometry">
            <mxPoint x="1088" y="72" as="sourcePoint" />
            <mxPoint x="1160" y="50" as="targetPoint" />
          </mxGeometry>
        </mxCell>
        <mxCell id="9jfMbnJ6UVAm21j0P12a-103" value="&lt;u&gt;Pay_ID&lt;/u&gt;" style="ellipse;whiteSpace=wrap;html=1;align=center;" vertex="1" parent="1">
          <mxGeometry x="1280" y="240" width="100" height="40" as="geometry" />
        </mxCell>
        <mxCell id="9jfMbnJ6UVAm21j0P12a-104" value="Pay_TAX" style="ellipse;whiteSpace=wrap;html=1;align=center;" vertex="1" parent="1">
          <mxGeometry x="1250" y="300" width="100" height="40" as="geometry" />
        </mxCell>
        <mxCell id="9jfMbnJ6UVAm21j0P12a-105" value="Pay_Date" style="ellipse;whiteSpace=wrap;html=1;align=center;" vertex="1" parent="1">
          <mxGeometry x="1110" y="300" width="100" height="40" as="geometry" />
        </mxCell>
        <mxCell id="9jfMbnJ6UVAm21j0P12a-106" value="Pay_SubTotal" style="ellipse;whiteSpace=wrap;html=1;align=center;" vertex="1" parent="1">
          <mxGeometry x="1250" y="180" width="100" height="40" as="geometry" />
        </mxCell>
        <mxCell id="9jfMbnJ6UVAm21j0P12a-107" value="Pay_Description" style="ellipse;whiteSpace=wrap;html=1;align=center;" vertex="1" parent="1">
          <mxGeometry x="1110" y="180" width="100" height="40" as="geometry" />
        </mxCell>
        <mxCell id="9jfMbnJ6UVAm21j0P12a-108" value="&lt;u&gt;Ins_ID&lt;/u&gt;" style="ellipse;whiteSpace=wrap;html=1;align=center;" vertex="1" parent="1">
          <mxGeometry x="1280" width="100" height="40" as="geometry" />
        </mxCell>
        <mxCell id="9jfMbnJ6UVAm21j0P12a-109" value="Ins_Date" style="ellipse;whiteSpace=wrap;html=1;align=center;" vertex="1" parent="1">
          <mxGeometry x="1110" y="60" width="100" height="40" as="geometry" />
        </mxCell>
        <mxCell id="9jfMbnJ6UVAm21j0P12a-110" value="Ins_Price" style="ellipse;whiteSpace=wrap;html=1;align=center;" vertex="1" parent="1">
          <mxGeometry x="1250" y="60" width="100" height="40" as="geometry" />
        </mxCell>
        <mxCell id="9jfMbnJ6UVAm21j0P12a-111" value="Ins_Time" style="ellipse;whiteSpace=wrap;html=1;align=center;" vertex="1" parent="1">
          <mxGeometry x="1250" y="-60" width="100" height="40" as="geometry" />
        </mxCell>
        <mxCell id="9jfMbnJ6UVAm21j0P12a-112" value="Ins_Description" style="ellipse;whiteSpace=wrap;html=1;align=center;" vertex="1" parent="1">
          <mxGeometry x="1110" y="-60" width="100" height="40" as="geometry" />
        </mxCell>
        <mxCell id="9jfMbnJ6UVAm21j0P12a-113" value="" style="endArrow=none;html=1;rounded=0;exitX=0.5;exitY=1;exitDx=0;exitDy=0;entryX=0.25;entryY=0;entryDx=0;entryDy=0;" edge="1" parent="1" source="9jfMbnJ6UVAm21j0P12a-107" target="9jfMbnJ6UVAm21j0P12a-99">
          <mxGeometry relative="1" as="geometry">
            <mxPoint x="1088" y="237" as="sourcePoint" />
            <mxPoint x="1160" y="270" as="targetPoint" />
          </mxGeometry>
        </mxCell>
        <mxCell id="9jfMbnJ6UVAm21j0P12a-114" value="" style="endArrow=none;html=1;rounded=0;exitX=0;exitY=1;exitDx=0;exitDy=0;entryX=0.75;entryY=0;entryDx=0;entryDy=0;" edge="1" parent="1" source="9jfMbnJ6UVAm21j0P12a-106" target="9jfMbnJ6UVAm21j0P12a-99">
          <mxGeometry relative="1" as="geometry">
            <mxPoint x="1170" y="230" as="sourcePoint" />
            <mxPoint x="1185" y="250" as="targetPoint" />
          </mxGeometry>
        </mxCell>
        <mxCell id="9jfMbnJ6UVAm21j0P12a-115" value="" style="endArrow=none;html=1;rounded=0;exitX=0;exitY=0;exitDx=0;exitDy=0;entryX=0.75;entryY=1;entryDx=0;entryDy=0;" edge="1" parent="1" source="9jfMbnJ6UVAm21j0P12a-104" target="9jfMbnJ6UVAm21j0P12a-99">
          <mxGeometry relative="1" as="geometry">
            <mxPoint x="1275" y="224" as="sourcePoint" />
            <mxPoint x="1235" y="250" as="targetPoint" />
          </mxGeometry>
        </mxCell>
        <mxCell id="9jfMbnJ6UVAm21j0P12a-116" value="" style="endArrow=none;html=1;rounded=0;entryX=0;entryY=0.5;entryDx=0;entryDy=0;" edge="1" parent="1" source="9jfMbnJ6UVAm21j0P12a-99" target="9jfMbnJ6UVAm21j0P12a-103">
          <mxGeometry relative="1" as="geometry">
            <mxPoint x="1285" y="234" as="sourcePoint" />
            <mxPoint x="1245" y="260" as="targetPoint" />
          </mxGeometry>
        </mxCell>
        <mxCell id="9jfMbnJ6UVAm21j0P12a-117" value="" style="endArrow=none;html=1;rounded=0;exitX=0.5;exitY=0;exitDx=0;exitDy=0;entryX=0.25;entryY=1;entryDx=0;entryDy=0;" edge="1" parent="1" source="9jfMbnJ6UVAm21j0P12a-105" target="9jfMbnJ6UVAm21j0P12a-99">
          <mxGeometry relative="1" as="geometry">
            <mxPoint x="1295" y="244" as="sourcePoint" />
            <mxPoint x="1255" y="270" as="targetPoint" />
          </mxGeometry>
        </mxCell>
        <mxCell id="9jfMbnJ6UVAm21j0P12a-118" value="" style="endArrow=none;html=1;rounded=0;exitX=0.5;exitY=0;exitDx=0;exitDy=0;entryX=0.25;entryY=1;entryDx=0;entryDy=0;" edge="1" parent="1" source="9jfMbnJ6UVAm21j0P12a-109" target="9jfMbnJ6UVAm21j0P12a-98">
          <mxGeometry relative="1" as="geometry">
            <mxPoint x="1305" y="254" as="sourcePoint" />
            <mxPoint x="1265" y="280" as="targetPoint" />
          </mxGeometry>
        </mxCell>
        <mxCell id="9jfMbnJ6UVAm21j0P12a-119" value="" style="endArrow=none;html=1;rounded=0;exitX=0.25;exitY=0;exitDx=0;exitDy=0;entryX=0.5;entryY=1;entryDx=0;entryDy=0;" edge="1" parent="1" source="9jfMbnJ6UVAm21j0P12a-98" target="9jfMbnJ6UVAm21j0P12a-112">
          <mxGeometry relative="1" as="geometry">
            <mxPoint x="1170" y="70" as="sourcePoint" />
            <mxPoint x="1185" y="50" as="targetPoint" />
          </mxGeometry>
        </mxCell>
        <mxCell id="9jfMbnJ6UVAm21j0P12a-120" value="" style="endArrow=none;html=1;rounded=0;exitX=0;exitY=0;exitDx=0;exitDy=0;entryX=0.75;entryY=1;entryDx=0;entryDy=0;" edge="1" parent="1" source="9jfMbnJ6UVAm21j0P12a-110" target="9jfMbnJ6UVAm21j0P12a-98">
          <mxGeometry relative="1" as="geometry">
            <mxPoint x="1180" y="80" as="sourcePoint" />
            <mxPoint x="1195" y="60" as="targetPoint" />
          </mxGeometry>
        </mxCell>
        <mxCell id="9jfMbnJ6UVAm21j0P12a-121" value="" style="endArrow=none;html=1;rounded=0;exitX=0.75;exitY=0;exitDx=0;exitDy=0;entryX=0;entryY=1;entryDx=0;entryDy=0;" edge="1" parent="1" source="9jfMbnJ6UVAm21j0P12a-98" target="9jfMbnJ6UVAm21j0P12a-111">
          <mxGeometry relative="1" as="geometry">
            <mxPoint x="1190" y="90" as="sourcePoint" />
            <mxPoint x="1205" y="70" as="targetPoint" />
          </mxGeometry>
        </mxCell>
        <mxCell id="9jfMbnJ6UVAm21j0P12a-122" value="" style="endArrow=none;html=1;rounded=0;exitX=1;exitY=0.5;exitDx=0;exitDy=0;entryX=0;entryY=0.5;entryDx=0;entryDy=0;" edge="1" parent="1" source="9jfMbnJ6UVAm21j0P12a-98" target="9jfMbnJ6UVAm21j0P12a-108">
          <mxGeometry relative="1" as="geometry">
            <mxPoint x="1200" y="100" as="sourcePoint" />
            <mxPoint x="1215" y="80" as="targetPoint" />
          </mxGeometry>
        </mxCell>
      </root>
    </mxGraphModel>
  </diagram>
</mxfile>
